# xmcd
#
# Track frame offsets:
#	150
#	17562
#	35652
#	55257
#	73829
#	98711
#	117142
#	134641
#	152727
#	172369
#	190941
#	215783
#
# Disc length: 3122 seconds
#
# Revision: 0
# Processed by: cddbd v1.5.2PL0 Copyright (c) Steve Scherf et al.
# Submitted via: audiograbber 1.83.01
#
DISCID=b60c300c
DTITLE=Various Artist - CB20390
DYEAR=1900
DGENRE=Karaoke
TTITLE0=Jackson, Alan - That'd Be Alright
TTITLE1=Diamond Rio - Completely
TTITLE2=McGraw, Tim - She's My Kind of Rain
TTITLE3=Urban, Keith - Raining On Sunday
TTITLE4=McGraw, Tim - Seventeen
TTITLE5=Restless Heart - Wheels
TTITLE6=Jackson, Alan - That'd Be Alright
TTITLE7=Diamond Rio - Completely
TTITLE8=McGraw, Tim - She's My Kind of Rain
TTITLE9=Urban, Keith - Raining On Sunday
TTITLE10=McGraw, Tim - Seventeen
TTITLE11=Restless Heart - Wheels
EXTD=
EXTT0=
EXTT1=
EXTT2=
EXTT3=
EXTT4=
EXTT5=
EXTT6=
EXTT7=
EXTT8=
EXTT9=
EXTT10=
EXTT11=
PLAYORDER=
